<?xml version="1.0" standalone="no"?>
<!DOCTYPE svg PUBLIC "-//W3C//DTD SVG 20010904//EN"
 "http://www.w3.org/TR/2001/REC-SVG-20010904/DTD/svg10.dtd">
<svg version="1.0" xmlns="http://www.w3.org/2000/svg"
 width="670.000000pt" height="670.000000pt" viewBox="0 0 670.000000 670.000000"
 preserveAspectRatio="xMidYMid meet">
<metadata>
Created by potrace 1.14, written by Peter Selinger 2001-2017
</metadata>
<g transform="translate(0.000000,670.000000) scale(0.100000,-0.100000)"
fill="#000000" stroke="none">
<path d="M4309 6346 c-45 -22 -62 -87 -35 -138 43 -82 50 -198 17 -273 -49
-111 -89 -132 -135 -72 -20 27 -27 49 -32 113 -3 43 -6 84 -6 89 0 6 3 57 6
114 5 98 4 107 -16 128 -41 44 -108 19 -125 -47 -5 -19 -9 -95 -8 -169 1 -73
-2 -152 -7 -175 -5 -22 -9 -47 -10 -54 -1 -7 -14 -22 -29 -33 -53 -37 -101 8
-115 110 -8 57 -8 189 0 261 6 56 4 69 -13 98 -39 62 -123 34 -135 -45 -3 -21
-5 -99 -5 -173 1 -74 -2 -150 -5 -168 -20 -104 -116 -130 -145 -39 -21 64 -28
212 -16 319 12 110 -24 161 -92 133 -52 -22 -57 -42 -58 -240 -1 -151 -4 -186
-19 -218 -22 -45 -28 -49 -59 -42 -35 9 -55 61 -63 167 -8 103 -8 96 0 158 13
105 8 144 -23 167 -40 30 -104 -3 -117 -60 -4 -17 -7 -98 -7 -179 1 -215 -13
-267 -73 -268 -49 0 -114 139 -108 233 3 55 24 137 35 137 3 0 6 6 7 13 0 6 3
23 6 37 14 59 -29 112 -83 103 -63 -9 -96 -80 -105 -228 -3 -33 -5 -62 -5 -64
-1 -2 -14 14 -30 35 -81 112 -217 187 -391 218 -14 3 -25 5 -25 6 0 8 -267 13
-305 5 -14 -3 -41 -8 -60 -11 -19 -3 -69 -19 -110 -35 -189 -74 -302 -201
-344 -386 -19 -82 -14 -240 9 -318 51 -172 186 -274 349 -263 68 5 176 41 176
60 0 4 5 8 11 8 6 0 22 14 37 31 113 132 64 250 -97 233 -31 -3 -65 -7 -76 -8
-26 -4 -74 30 -74 52 0 9 -2 35 -4 57 -7 79 41 153 126 194 123 59 240 -16
296 -190 30 -92 9 -218 -58 -363 -60 -128 -130 -316 -157 -421 -23 -85 -22
-80 -43 -220 -7 -48 -8 -464 -1 -525 11 -88 21 -173 26 -209 l6 -43 -62 51
c-70 58 -204 151 -219 151 -5 0 -11 3 -13 8 -1 4 -28 23 -58 42 -64 40 -54 33
-150 109 -243 191 -391 403 -435 622 -11 52 -5 187 10 244 23 86 60 121 124
116 50 -3 89 -30 111 -76 10 -22 30 -65 44 -95 42 -91 97 -130 154 -109 12 5
22 15 22 23 0 8 6 16 13 19 8 2 12 31 12 98 0 81 -4 102 -26 150 -45 97 -102
145 -222 191 -65 25 -182 32 -242 13 -25 -7 -45 -10 -45 -7 0 4 -4 3 -8 -3 -4
-5 -23 -18 -42 -28 -61 -31 -118 -93 -161 -172 -23 -42 -69 -171 -74 -209 -36
-234 -23 -390 47 -586 37 -101 69 -162 156 -295 135 -208 237 -325 382 -440
279 -221 444 -431 466 -592 5 -41 -6 -58 -41 -62 -39 -4 -177 -58 -300 -116
-125 -60 -185 -86 -185 -80 0 2 -15 -2 -32 -9 -102 -42 -265 -36 -372 14 -101
46 -146 99 -160 185 -9 50 -13 147 -8 158 3 5 6 30 7 55 2 26 6 62 9 80 3 17
9 47 12 65 7 37 9 54 19 122 3 28 8 61 11 75 5 29 5 223 0 260 -11 75 -17 103
-36 153 -51 137 -141 218 -260 234 -190 24 -329 -28 -390 -146 -26 -52 -32
-83 -35 -171 -3 -113 26 -211 78 -260 88 -85 221 -66 212 30 -2 20 -13 61 -25
91 -43 114 -9 170 97 164 55 -3 88 -26 103 -70 12 -37 7 -135 -10 -180 -5 -14
-8 -25 -6 -25 2 0 -10 -37 -26 -82 -17 -46 -33 -92 -35 -103 -3 -11 -11 -26
-16 -33 -18 -23 -71 -192 -81 -262 -3 -19 -8 -48 -12 -65 -8 -40 -8 -231 -1
-275 20 -113 55 -208 109 -295 37 -60 172 -194 225 -224 195 -110 365 -159
608 -177 140 -10 190 -10 202 -1 6 4 14 3 18 -3 3 -6 10 -8 14 -6 3 3 45 7 91
11 90 7 110 9 204 20 48 6 57 5 50 -6 -4 -8 -23 -37 -41 -66 -18 -29 -33 -57
-33 -63 0 -5 -3 -10 -7 -10 -5 0 -13 -10 -19 -23 -6 -12 -47 -92 -91 -177
-150 -292 -186 -419 -187 -655 0 -132 6 -175 39 -300 33 -127 140 -311 220
-377 152 -127 446 -135 682 -18 92 45 111 58 179 126 60 60 116 168 137 269
15 70 17 278 3 338 -6 26 -70 197 -101 272 -45 107 -71 163 -86 186 -10 14
-21 38 -25 53 -6 26 -5 28 16 21 12 -4 30 -14 40 -23 94 -85 192 -81 219 8 35
116 -31 265 -141 321 l-27 14 100 104 c54 57 99 107 99 111 0 4 9 18 21 31 12
13 50 66 86 117 35 50 68 92 73 92 6 0 44 -80 41 -88 -3 -6 125 -251 173 -332
31 -51 55 -94 54 -95 -2 -1 -35 -12 -74 -24 -105 -33 -184 -107 -198 -186 -7
-37 20 -100 52 -121 52 -34 97 -23 155 37 35 36 74 39 83 5 21 -85 -37 -234
-151 -389 -84 -113 -118 -174 -150 -271 -70 -210 -13 -475 134 -623 56 -56
182 -125 251 -137 19 -3 46 -8 60 -11 68 -14 263 -4 330 16 182 55 358 217
456 418 32 66 71 170 79 211 2 8 8 33 13 55 31 117 31 313 0 455 -6 30 -12 57
-13 60 0 3 -4 23 -9 45 -12 66 -68 259 -77 270 -5 5 -9 17 -9 27 0 11 -7 32
-15 48 -9 17 -13 30 -10 30 3 0 41 -28 85 -63 43 -35 99 -74 122 -86 62 -35
200 -103 212 -106 10 -2 22 -6 64 -22 21 -8 11 -5 121 -32 51 -12 114 -25 140
-27 58 -7 248 -7 281 1 14 3 45 8 69 11 24 3 67 14 97 24 29 10 55 16 58 13 3
-4 6 -1 6 5 0 7 7 12 15 12 19 0 139 59 143 71 2 5 9 9 17 9 23 0 146 122 188
189 34 53 80 150 78 163 0 2 6 26 15 53 27 90 35 264 19 435 -18 188 -6 274
52 381 69 130 198 187 259 115 29 -33 32 -101 8 -167 -28 -79 -41 -162 -32
-205 38 -188 314 -40 318 171 3 102 -19 188 -73 289 -28 52 -108 146 -125 146
-37 1 -23 25 76 125 59 61 115 121 125 135 165 238 201 339 201 570 0 209 -47
349 -153 459 -143 148 -319 180 -560 101 -141 -47 -218 -125 -227 -230 -5 -61
23 -104 86 -136 75 -38 142 -16 174 58 9 20 31 50 48 67 34 33 122 71 164 71
97 0 185 -147 187 -310 0 -50 -15 -145 -29 -178 -7 -18 -41 -60 -74 -92 -112
-109 -350 -208 -733 -306 -100 -25 -193 -48 -206 -51 -14 -2 -28 -6 -31 -8 -4
-2 -22 -7 -41 -10 -47 -8 -256 -60 -364 -89 -49 -14 -91 -24 -93 -22 -2 2 8
22 22 44 46 73 138 289 151 355 2 9 11 44 19 76 8 33 18 81 22 108 3 26 8 51
10 54 11 19 18 226 15 439 -8 567 -7 640 14 760 11 58 50 162 78 208 50 78
147 129 226 118 20 -3 39 -5 43 -6 4 0 14 -7 22 -16 32 -31 -7 -106 -101 -195
-116 -109 -141 -238 -55 -283 40 -21 181 -7 203 20 6 8 17 14 23 14 33 0 125
117 153 194 35 97 37 226 5 299 -11 26 -19 47 -16 47 11 0 -41 66 -80 103 -63
59 -116 85 -231 114 -43 11 -192 8 -234 -4 -121 -35 -202 -94 -287 -206 -54
-72 -117 -195 -135 -267 -7 -28 -15 -50 -19 -50 -3 0 -13 12 -22 28 -19 31
-106 121 -168 172 -80 66 -82 68 -76 87 6 19 14 66 22 118 40 288 13 459 -78
494 -17 6 -33 5 -49 -3z m-2228 -2339 c-10 -9 -11 -8 -5 6 3 10 9 15 12 12 3
-3 0 -11 -7 -18z m3584 -939 c-14 -29 -25 -61 -25 -70 0 -9 -4 -19 -9 -22 -7
-5 -18 -45 -38 -146 -3 -14 -7 -46 -16 -120 -3 -19 -8 -53 -13 -75 -4 -22 -9
-42 -9 -45 -4 -19 -21 -63 -42 -106 -89 -187 -328 -253 -540 -149 -59 29 -95
59 -198 162 -69 69 -125 126 -123 127 2 1 32 17 68 36 36 18 79 42 95 52 17
10 37 21 45 24 8 4 22 13 30 20 25 21 123 68 520 254 149 70 242 108 267 109
8 1 3 -18 -12 -51z m-3450 -1450 c5 -18 9 -37 11 -43 1 -5 3 -12 4 -15 8 -21
37 -157 46 -215 14 -94 9 -256 -10 -315 -31 -96 -77 -129 -172 -125 -79 4
-136 38 -165 100 -52 110 -12 303 92 449 33 46 170 195 180 196 4 0 10 -15 14
-32z m1356 -183 c35 -75 58 -139 76 -209 11 -44 11 -147 0 -181 -22 -73 -94
-124 -187 -132 -50 -5 -62 -2 -97 21 -71 47 -92 134 -58 249 16 56 88 175 138
229 14 15 35 45 48 68 12 22 26 40 31 40 4 0 26 -38 49 -85z"/>
</g>
</svg>
