<?xml version="1.0" standalone="no"?>
<!DOCTYPE svg PUBLIC "-//W3C//DTD SVG 20010904//EN"
 "http://www.w3.org/TR/2001/REC-SVG-20010904/DTD/svg10.dtd">
<svg version="1.0" xmlns="http://www.w3.org/2000/svg"
 width="444.000000pt" height="444.000000pt" viewBox="0 0 444.000000 444.000000"
 preserveAspectRatio="xMidYMid meet">
<metadata>
Created by potrace 1.14, written by Peter Selinger 2001-2017
</metadata>
<g transform="translate(0.000000,444.000000) scale(0.100000,-0.100000)"
fill="#000000" stroke="none">
<path d="M1435 3891 c-55 -4 -110 -12 -123 -20 -13 -7 -30 -10 -38 -7 -32 12
5 -109 45 -148 l30 -29 213 -3 c117 -2 259 -6 315 -10 l102 -6 -19 -41 c-11
-23 -31 -73 -46 -112 -14 -38 -34 -88 -44 -110 -40 -83 -141 -367 -260 -725
-10 -30 -30 -82 -45 -115 -15 -33 -37 -94 -50 -135 -91 -300 -120 -391 -142
-440 -14 -30 -42 -102 -63 -160 -43 -119 -78 -206 -120 -300 -34 -75 -68 -167
-111 -295 -16 -49 -36 -103 -43 -120 -8 -16 -20 -47 -27 -69 -8 -21 -23 -43
-35 -48 -67 -31 -67 -148 0 -191 13 -9 27 -26 31 -37 6 -19 12 -20 98 -15 343
18 479 26 527 30 178 13 587 16 895 5 193 -7 402 -14 465 -15 63 -2 223 -9
355 -15 225 -11 243 -11 294 7 30 10 57 25 61 33 37 74 42 139 14 171 -8 8
-14 20 -14 25 0 5 -9 15 -21 22 -11 7 -27 27 -35 45 -8 18 -18 39 -23 47 -5 8
-16 33 -24 55 -54 144 -42 120 -145 300 -41 72 -96 171 -122 220 -26 50 -61
111 -78 136 -18 26 -40 73 -50 106 -11 33 -39 89 -63 124 -25 35 -51 80 -59
99 -8 19 -42 91 -77 159 -35 68 -63 129 -63 134 0 6 -40 93 -90 194 -49 101
-90 188 -90 192 0 5 -9 19 -19 33 -11 13 -23 38 -27 54 -4 16 -12 36 -19 44
-8 8 -39 65 -70 125 -31 61 -65 119 -74 130 -10 11 -58 97 -106 190 -147 282
-165 324 -172 395 -4 34 -11 50 -31 65 -25 18 -45 20 -277 22 -137 1 -290 4
-340 6 -49 2 -135 1 -190 -2z m776 -494 c28 -56 62 -115 74 -132 13 -16 35
-55 50 -85 15 -30 35 -64 45 -75 10 -11 37 -58 61 -105 23 -47 51 -95 60 -108
10 -13 27 -47 38 -75 10 -29 42 -92 70 -140 28 -49 51 -93 51 -98 0 -5 4 -17
10 -27 5 -9 25 -53 44 -97 19 -44 59 -133 90 -197 31 -65 56 -124 56 -132 0
-21 -111 -30 -195 -15 -47 7 -231 11 -553 11 l-483 0 7 31 c3 17 10 38 15 47
5 8 32 89 60 180 28 91 63 190 76 220 28 62 123 342 123 362 0 7 6 25 14 40 8
15 22 53 31 85 9 31 23 66 31 77 8 11 14 27 14 36 0 8 22 60 50 115 27 55 59
122 70 148 11 27 24 46 29 42 6 -3 33 -52 62 -108z m-128 -1504 c29 -4 41 -12
48 -31 6 -16 7 -175 3 -428 l-7 -402 -61 -6 c-34 -3 -110 -6 -171 -6 -60 0
-119 0 -130 0 -50 -1 -188 -10 -289 -20 -61 -5 -142 -10 -179 -10 l-68 0 6 38
c4 20 12 53 19 72 7 19 22 62 32 95 9 33 28 80 41 105 13 25 23 52 23 61 0 15
16 59 40 114 5 11 36 81 69 156 34 75 67 159 73 187 13 51 24 62 44 42 7 -7
23 -5 50 7 51 22 372 41 457 26z m737 -34 c59 -9 80 -11 125 -9 50 1 75 -5 80
-19 3 -9 26 -52 51 -96 25 -44 73 -131 106 -193 32 -62 74 -137 93 -166 38
-60 65 -120 65 -147 0 -9 7 -24 15 -33 17 -16 78 -176 71 -183 -10 -10 -907 1
-992 13 -77 9 -74 -5 -77 416 -2 295 1 378 11 391 9 10 10 17 2 22 -6 3 -7 11
-4 17 8 13 350 3 454 -13z"/>
</g>
</svg>
