<?xml version="1.0" standalone="no"?>
<!DOCTYPE svg PUBLIC "-//W3C//DTD SVG 20010904//EN"
 "http://www.w3.org/TR/2001/REC-SVG-20010904/DTD/svg10.dtd">
<svg version="1.0" xmlns="http://www.w3.org/2000/svg"
 width="470.000000pt" height="470.000000pt" viewBox="0 0 470.000000 470.000000"
 preserveAspectRatio="xMidYMid meet">
<metadata>
Created by potrace 1.14, written by Peter Selinger 2001-2017
</metadata>
<g transform="translate(0.000000,470.000000) scale(0.100000,-0.100000)"
fill="#000000" stroke="none">
<path d="M530 3610 l0 -270 270 0 270 0 0 270 0 270 -270 0 -270 0 0 -270z"/>
<path d="M1150 3610 l0 -270 270 0 270 0 0 270 0 270 -270 0 -270 0 0 -270z"/>
<path d="M1770 3610 l0 -270 270 0 270 0 0 270 0 270 -270 0 -270 0 0 -270z"/>
<path d="M2390 3610 l0 -270 270 0 270 0 0 270 0 270 -270 0 -270 0 0 -270z"/>
<path d="M3010 3610 l0 -270 270 0 270 0 0 270 0 270 -270 0 -270 0 0 -270z"/>
<path d="M3630 3610 l0 -270 270 0 270 0 0 270 0 270 -270 0 -270 0 0 -270z"/>
<path d="M530 2990 l0 -270 270 0 270 0 0 270 0 270 -270 0 -270 0 0 -270z"/>
<path d="M1150 2990 l0 -270 270 0 270 0 0 270 0 270 -270 0 -270 0 0 -270z"/>
<path d="M1770 2990 l0 -270 270 0 270 0 0 270 0 270 -270 0 -270 0 0 -270z"/>
<path d="M2390 2990 l0 -270 270 0 270 0 0 270 0 270 -270 0 -270 0 0 -270z"/>
<path d="M3010 2990 l0 -270 270 0 270 0 0 270 0 270 -270 0 -270 0 0 -270z"/>
<path d="M3630 2990 l0 -270 270 0 270 0 0 270 0 270 -270 0 -270 0 0 -270z"/>
<path d="M530 2370 l0 -270 270 0 270 0 0 270 0 270 -270 0 -270 0 0 -270z"/>
<path d="M1150 2370 l0 -270 270 0 270 0 0 270 0 270 -270 0 -270 0 0 -270z"/>
<path d="M1770 2370 l0 -270 270 0 270 0 0 270 0 270 -270 0 -270 0 0 -270z"/>
<path d="M2390 2370 l0 -270 270 0 270 0 0 270 0 270 -270 0 -270 0 0 -270z"/>
<path d="M3010 2370 l0 -270 270 0 270 0 0 270 0 270 -270 0 -270 0 0 -270z"/>
<path d="M3630 2370 l0 -270 270 0 270 0 0 270 0 270 -270 0 -270 0 0 -270z"/>
<path d="M530 1750 l0 -270 270 0 270 0 0 270 0 270 -270 0 -270 0 0 -270z"/>
<path d="M1150 1750 l0 -270 270 0 270 0 0 270 0 270 -270 0 -270 0 0 -270z"/>
<path d="M1770 1750 l0 -270 270 0 270 0 0 270 0 270 -270 0 -270 0 0 -270z"/>
<path d="M2390 1750 l0 -270 270 0 270 0 0 270 0 270 -270 0 -270 0 0 -270z"/>
<path d="M3010 1750 l0 -270 270 0 270 0 0 270 0 270 -270 0 -270 0 0 -270z"/>
<path d="M3630 1750 l0 -270 270 0 270 0 0 270 0 270 -270 0 -270 0 0 -270z"/>
<path d="M530 1130 l0 -270 270 0 270 0 0 270 0 270 -270 0 -270 0 0 -270z"/>
<path d="M1150 1130 l0 -270 270 0 270 0 0 270 0 270 -270 0 -270 0 0 -270z"/>
<path d="M1770 1130 l0 -270 270 0 270 0 0 270 0 270 -270 0 -270 0 0 -270z"/>
<path d="M2390 1130 l0 -270 270 0 270 0 0 270 0 270 -270 0 -270 0 0 -270z"/>
<path d="M3010 1130 l0 -270 270 0 270 0 0 270 0 270 -270 0 -270 0 0 -270z"/>
<path d="M3630 1130 l0 -270 270 0 270 0 0 270 0 270 -270 0 -270 0 0 -270z"/>
</g>
</svg>
